<mxfile host="app.diagrams.net" modified="2023-11-22T13:38:36.084Z" agent="Mozilla/5.0 (Macintosh; Intel Mac OS X 10_15_7) AppleWebKit/605.1.15 (KHTML, like Gecko) Version/16.1 Safari/605.1.15" version="22.1.3" etag="1gZmloriL1iQcNYZpPXW" type="github">
  <diagram name="Seite-1" id="xbVqVgdGOFl9VlVDA56O">
    <mxGraphModel>
      <root>
        <mxCell id="0" />
        <mxCell id="1" parent="0" />
      </root>
    </mxGraphModel>
  </diagram>
</mxfile>
